<?xml version="1.0" encoding="utf-8"?>
<!-- Generator: Adobe Illustrator 19.2.1, SVG Export Plug-In . SVG Version: 6.00 Build 0)  -->
<svg version="1.1" id="Calque_1" xmlns="http://www.w3.org/2000/svg" xmlns:xlink="http://www.w3.org/1999/xlink" x="0px" y="0px"
	 viewBox="0 0 1984.2 1133.9" style="enable-background:new 0 0 1984.2 1133.9;" xml:space="preserve">
<style type="text/css">
	.st0{fill:none;stroke:#FF0000;stroke-width:0.25;stroke-miterlimit:10;}
	.st1{fill:none;stroke:#000000;stroke-miterlimit:10;}
</style>
<g>
	<path class="st0" d="M204.1,307.4v-81.9 M210.2,219.7v41 M210.2,272.3v41 M216.3,307.4v-81.9 M222.4,219.7v41 M222.4,272.3v41
		 M228.6,307.4v-81.9 M234.7,219.7v41 M234.7,272.3v41 M240.8,307.4v-81.9 M246.9,219.7v41 M246.9,272.3v41 M253.1,307.4v-81.9
		 M259.2,219.7v41 M259.2,272.3l0,41 M265.3,307.4v-81.9 M271.4,219.7v41 M271.4,272.3v41 M277.6,307.4v-81.9 M277.6,213.8
		 M204.1,219.7h73.5 M277.6,313.3h-73.5 M347.8,307.4v-81.9 M353.9,219.7v41 M353.9,272.3v41 M360,307.4v-81.9 M366.2,219.7v41
		 M366.2,272.3v41 M372.3,307.4v-81.9 M378.4,219.7v41 M378.4,272.3v41 M384.5,307.4v-81.9 M390.7,219.7v41 M390.7,272.3v41
		 M396.8,307.4v-81.9 M402.9,219.7v41 M402.9,272.3v41 M409,307.4v-81.9 M415.2,219.7v41 M415.2,272.3v41 M421.3,307.4v-81.9
		 M421.3,213.8 M347.8,219.7h73.5 M421.3,313.3h-73.5 M204.1,219.7h-11.7v11.7H169v-11.7h-23.4v93.6H169v-11.7h23.4v11.7h11.7
		 M277.6,219.7h14v11.7h14v-11.7h14v11.7h14v-11.7h14"/>
	<polyline class="st0" points="347.8,313.3 333.7,313.3 333.7,301.6 319.7,301.6 319.7,313.3 305.7,313.3 305.7,301.6 291.6,301.6 
		291.6,313.3 277.6,313.3 	"/>
	<path class="st0" d="M755.5,307.4v-81.9 M749.4,219.7v41 M749.4,272.3v41 M743.3,307.4v-81.9 M737.1,219.7v41 M737.1,272.3v41
		 M731,307.4v-81.9 M724.9,219.7v41 M724.9,272.3v41 M718.8,307.4v-81.9 M712.6,219.7v41 M712.6,272.3v41 M706.5,307.4v-81.9
		 M700.4,219.7v41 M700.4,272.3l0,41 M694.3,307.4v-81.9 M688.1,219.7v41 M688.1,272.3v41 M682,307.4v-81.9 M682,213.8 M755.5,219.7
		H682 M682,313.3h73.5 M611.8,307.4v-81.9 M605.7,219.7v41 M605.7,272.3v41 M599.5,307.4v-81.9 M593.4,219.7v41 M593.4,272.3v41
		 M587.3,307.4v-81.9 M581.2,219.7v41 M581.2,272.3v41 M575,307.4v-81.9 M568.9,219.7v41 M568.9,272.3v41 M562.8,307.4v-81.9
		 M556.7,219.7v41 M556.7,272.3v41 M550.5,307.4v-81.9 M544.4,219.7v41 M544.4,272.3v41 M538.3,307.4v-81.9 M538.3,213.8
		 M611.8,219.7h-73.5 M538.3,313.3h73.5 M755.5,219.7h11.7v11.7h23.4v-11.7H814v93.6h-23.4v-11.7h-23.4v11.7h-11.7 M682,219.7h-14
		v11.7h-14v-11.7h-14v11.7h-14v-11.7h-14"/>
	<polyline class="st0" points="611.8,313.3 625.8,313.3 625.8,301.6 639.9,301.6 639.9,313.3 653.9,313.3 653.9,301.6 668,301.6 
		668,313.3 682,313.3 	"/>
	<path class="st0" d="M409.6,219.7h19.5v11.7h19.5v-11.7h19.5v11.7h19.5v-11.7h19.5v11.7h19.5v-11.7h19.5h-7.8
		c25.8,0,46.8-21,46.8-46.8v-14h11.7v-14h-11.7v-14h11.7v-14h-11.7v-14c0-25.8-21-46.8-46.8-46.8h-11.7V44.2h-23.4v11.7h-46.8V44.2
		H433v11.7h-11.7l0,0c-25.8,0-46.8,21-46.8,46.8v14h-11.7v14h11.7v14h-11.7v14h11.7v14c0,25.8,21,46.8,46.8,46.8"/>
	<path class="st0" d="M550,313.3h-19.5v-11.7H511v11.7h-19.5v-11.7H472v11.7h-19.5v-11.7H433v11.7h-19.5h7.8
		c-25.8,0-46.8,21-46.8,46.8"/>
	<polyline class="st0" points="374.5,360.1 374.5,374.1 362.8,374.1 362.8,388.2 374.5,388.2 374.5,402.2 362.8,402.2 362.8,416.3 
		374.5,416.3 374.5,430.3 	"/>
	<path class="st0" d="M374.5,430.3c0,25.8,21,46.8,46.8,46.8H433v11.7h23.4v-11.7h46.8v11.7h23.4v-11.7h11.7l0,0
		c25.8,0,46.8-21,46.8-46.8"/>
	<polyline class="st0" points="585.1,430.3 585.1,416.3 596.8,416.3 596.8,402.2 585.1,402.2 585.1,388.2 596.8,388.2 596.8,374.1 
		585.1,374.1 585.1,360.1 	"/>
	<path class="st0" d="M585.1,360.1c0-25.8-21-46.8-46.8-46.8"/>
	<polygon class="st0" points="508.2,283.1 485.5,283.1 465.2,289.2 465.2,294.9 485.5,294.9 508.2,294.9 530.4,294.9 530.4,289.2 	
		"/>
	
		<rect x="497" y="239.2" transform="matrix(1.346867e-10 1 -1 1.346867e-10 764.1387 -248.7986)" class="st0" width="18.9" height="36.9"/>
	<circle class="st0" cx="446.3" cy="256.8" r="11.3"/>
	<circle class="st0" cx="312.7" cy="266.5" r="11.3"/>
	<rect x="456" y="390.9" class="st0" width="27.6" height="8.5"/>
	<rect x="512" y="390.9" class="st0" width="18.4" height="8.5"/>
	
		<rect x="637" y="258" transform="matrix(1.346192e-10 1 -1 1.346192e-10 913.3934 -380.4108)" class="st0" width="19.8" height="17"/>
	<polygon class="st0" points="688,356 688,372.9 622.9,372.9 622.9,356 613.5,356 613.5,386.5 622.8,386.5 641.2,386.5 641.3,386.5 
		641.3,378 669.5,378 669.5,386.5 669.6,386.5 687.9,386.5 687.9,378 697.3,378 697.3,356 	"/>
</g>
<g>
	<g>
		<path d="M483.8,241.3L483.8,241.3L483.8,241.3L483.8,241.3l1.9,0.7v0.8l-2.7-1.2V241l2.7-1.2v0.8L483.8,241.3z"/>
		<path d="M490.1,242.1c0-0.1-0.1-0.2-0.2-0.3c-0.1-0.1-0.3-0.1-0.6-0.2c-0.4-0.1-0.7-0.2-0.9-0.4c-0.2-0.2-0.3-0.4-0.3-0.7
			c0-0.3,0.1-0.5,0.4-0.7c0.2-0.2,0.6-0.3,1-0.3c0.4,0,0.8,0.1,1,0.3c0.3,0.2,0.4,0.5,0.4,0.8l0,0h-0.8c0-0.1-0.1-0.3-0.2-0.4
			c-0.1-0.1-0.3-0.2-0.5-0.2c-0.2,0-0.3,0-0.4,0.1c-0.1,0.1-0.1,0.2-0.1,0.3s0,0.2,0.1,0.3c0.1,0.1,0.3,0.1,0.6,0.2
			c0.4,0.1,0.8,0.2,1,0.4c0.2,0.2,0.3,0.4,0.3,0.7c0,0.3-0.1,0.6-0.4,0.8c-0.3,0.2-0.6,0.3-1,0.3c-0.5,0-0.8-0.1-1.1-0.3
			c-0.3-0.2-0.4-0.5-0.4-0.8l0,0h0.7c0,0.2,0.1,0.3,0.2,0.4c0.1,0.1,0.3,0.1,0.5,0.1c0.2,0,0.4,0,0.5-0.1S490.1,242.3,490.1,242.1z"
			/>
		<path d="M493.1,243.2c-0.5,0-0.9-0.2-1.2-0.5c-0.3-0.3-0.4-0.7-0.4-1.2v-0.1c0-0.5,0.1-0.9,0.4-1.3c0.3-0.3,0.7-0.5,1.1-0.5
			c0.5,0,0.8,0.1,1.1,0.4c0.3,0.3,0.4,0.7,0.4,1.1v0.5h-2.2l0,0c0,0.3,0.1,0.5,0.2,0.7c0.1,0.2,0.4,0.3,0.6,0.3c0.2,0,0.4,0,0.5-0.1
			s0.3-0.1,0.4-0.2l0.3,0.5c-0.1,0.1-0.3,0.2-0.5,0.3C493.7,243.1,493.4,243.2,493.1,243.2z M493,240.2c-0.2,0-0.4,0.1-0.5,0.2
			s-0.2,0.3-0.2,0.6l0,0h1.4v-0.1c0-0.2-0.1-0.4-0.2-0.5C493.4,240.2,493.3,240.2,493,240.2z"/>
		<path d="M495.8,239.6l0,0.5c0.1-0.2,0.3-0.3,0.4-0.4c0.2-0.1,0.4-0.1,0.6-0.1c0.4,0,0.6,0.1,0.8,0.3s0.3,0.6,0.3,1v2.2h-0.8v-2.2
			c0-0.3-0.1-0.4-0.2-0.6c-0.1-0.1-0.3-0.2-0.5-0.2c-0.2,0-0.3,0-0.4,0.1s-0.2,0.2-0.3,0.3v2.5h-0.8v-3.5H495.8z"/>
		<path d="M498.7,241.4c0-0.6,0.1-1,0.4-1.3c0.2-0.3,0.6-0.5,1-0.5c0.2,0,0.4,0,0.5,0.1s0.3,0.2,0.4,0.3v-1.9h0.8v5h-0.7l-0.1-0.4
			c-0.1,0.2-0.2,0.3-0.4,0.4c-0.2,0.1-0.3,0.1-0.5,0.1c-0.4,0-0.8-0.2-1-0.5C498.8,242.4,498.7,242,498.7,241.4L498.7,241.4z
			 M499.5,241.5c0,0.3,0.1,0.6,0.2,0.8s0.3,0.3,0.6,0.3c0.2,0,0.3,0,0.4-0.1c0.1-0.1,0.2-0.2,0.3-0.3v-1.5c-0.1-0.1-0.2-0.2-0.3-0.3
			c-0.1-0.1-0.3-0.1-0.4-0.1c-0.3,0-0.5,0.1-0.6,0.3C499.6,240.7,499.5,241,499.5,241.5L499.5,241.5z"/>
		<path d="M511.7,243.1h-0.8v-5h0.8V243.1z"/>
		<path d="M514,243.2c-0.5,0-0.9-0.2-1.2-0.5s-0.4-0.7-0.4-1.2v-0.1c0-0.5,0.1-0.9,0.4-1.3c0.3-0.3,0.7-0.5,1.1-0.5
			c0.5,0,0.8,0.1,1.1,0.4c0.3,0.3,0.4,0.7,0.4,1.1v0.5h-2.2l0,0c0,0.3,0.1,0.5,0.2,0.7c0.1,0.2,0.4,0.3,0.6,0.3c0.2,0,0.4,0,0.5-0.1
			c0.2-0.1,0.3-0.1,0.4-0.2l0.3,0.5c-0.1,0.1-0.3,0.2-0.5,0.3C514.6,243.1,514.3,243.2,514,243.2z M513.9,240.2
			c-0.2,0-0.4,0.1-0.5,0.2c-0.1,0.2-0.2,0.3-0.2,0.6l0,0h1.4v-0.1c0-0.2-0.1-0.4-0.2-0.5C514.3,240.2,514.2,240.2,513.9,240.2z"/>
		<path d="M518.1,243.1c0-0.1-0.1-0.2-0.1-0.3s0-0.2,0-0.3c-0.1,0.2-0.2,0.3-0.4,0.4c-0.2,0.1-0.4,0.2-0.6,0.2
			c-0.4,0-0.6-0.1-0.8-0.3c-0.2-0.2-0.3-0.4-0.3-0.8c0-0.3,0.1-0.6,0.4-0.8c0.3-0.2,0.6-0.3,1.1-0.3h0.6v-0.3c0-0.2-0.1-0.3-0.2-0.4
			c-0.1-0.1-0.3-0.2-0.5-0.2c-0.2,0-0.3,0-0.4,0.1c-0.1,0.1-0.2,0.2-0.2,0.3H516l0,0c0-0.3,0.1-0.5,0.4-0.7c0.3-0.2,0.6-0.3,1-0.3
			c0.4,0,0.7,0.1,1,0.3c0.2,0.2,0.4,0.5,0.4,0.9v1.6c0,0.1,0,0.3,0,0.4c0,0.1,0.1,0.3,0.1,0.4H518.1z M517.2,242.5
			c0.2,0,0.4,0,0.5-0.1c0.2-0.1,0.3-0.2,0.3-0.3v-0.5h-0.6c-0.2,0-0.4,0.1-0.5,0.2c-0.1,0.1-0.2,0.2-0.2,0.4c0,0.1,0,0.2,0.1,0.3
			C516.9,242.5,517,242.5,517.2,242.5z"/>
		<path d="M521.4,240.3l-0.3,0c-0.2,0-0.3,0-0.4,0.1s-0.2,0.2-0.2,0.3v2.4h-0.8v-3.5h0.7l0.1,0.5c0.1-0.2,0.2-0.3,0.3-0.4
			s0.3-0.2,0.5-0.2c0,0,0.1,0,0.1,0s0.1,0,0.1,0L521.4,240.3z"/>
		<path d="M522.6,239.6l0,0.5c0.1-0.2,0.3-0.3,0.4-0.4c0.2-0.1,0.4-0.1,0.6-0.1c0.4,0,0.6,0.1,0.8,0.3c0.2,0.2,0.3,0.6,0.3,1v2.2
			H524v-2.2c0-0.3-0.1-0.4-0.2-0.6c-0.1-0.1-0.3-0.2-0.5-0.2c-0.2,0-0.3,0-0.4,0.1s-0.2,0.2-0.3,0.3v2.5h-0.8v-3.5H522.6z"/>
		<path d="M527.3,240.6v-0.8l2.8,1.2v0.6l-2.8,1.2v-0.8l2-0.7l0.1,0l0,0l-0.1,0L527.3,240.6z"/>
	</g>
</g>
<g>
	<path d="M627.7,287.8v-0.6h1.7l0.1,0.8c0.2-0.3,0.3-0.5,0.6-0.6c0.2-0.2,0.5-0.2,0.8-0.2c0.1,0,0.2,0,0.2,0c0.1,0,0.1,0,0.2,0
		l-0.1,0.9l-0.6,0c-0.3,0-0.5,0.1-0.6,0.2c-0.2,0.1-0.3,0.3-0.4,0.5v3.1l0.8,0.1v0.6h-2.6v-0.6l0.8-0.1v-3.8L627.7,287.8z"/>
	<path d="M634.3,292.6c-0.7,0-1.3-0.2-1.8-0.7s-0.7-1.1-0.7-1.9v-0.2c0-0.8,0.2-1.4,0.7-1.9c0.5-0.5,1-0.8,1.6-0.8
		c0.7,0,1.3,0.2,1.6,0.7s0.6,1,0.6,1.7v0.6h-3.5l0,0c0,0.5,0.1,0.9,0.4,1.3c0.3,0.3,0.6,0.5,1.1,0.5c0.3,0,0.6,0,0.9-0.1
		c0.2-0.1,0.5-0.2,0.6-0.4l0.4,0.6c-0.2,0.2-0.4,0.3-0.8,0.5C635.1,292.6,634.7,292.6,634.3,292.6z M634.1,287.8
		c-0.3,0-0.6,0.1-0.8,0.4c-0.2,0.3-0.4,0.6-0.4,1l0,0h2.5v-0.1c0-0.4-0.1-0.7-0.3-1C634.8,288,634.5,287.8,634.1,287.8z"/>
	<path d="M639.7,291.9c0.3,0,0.6-0.1,0.9-0.3s0.4-0.4,0.4-0.7h0.9l0,0c0,0.5-0.2,0.9-0.6,1.2c-0.4,0.4-0.9,0.5-1.5,0.5
		c-0.8,0-1.4-0.3-1.8-0.8c-0.4-0.5-0.6-1.1-0.6-1.9v-0.2c0-0.8,0.2-1.4,0.6-1.9c0.4-0.5,1-0.8,1.8-0.8c0.4,0,0.8,0.1,1.2,0.2
		c0.3,0.1,0.6,0.3,0.8,0.6l0,1.2H641l-0.2-0.8c-0.1-0.1-0.3-0.2-0.4-0.3c-0.2-0.1-0.4-0.1-0.6-0.1c-0.5,0-0.9,0.2-1.1,0.6
		c-0.2,0.4-0.3,0.8-0.3,1.4v0.2c0,0.5,0.1,1,0.3,1.4S639.2,291.9,639.7,291.9z"/>
	<path d="M645.2,292.6c-0.7,0-1.3-0.2-1.8-0.7s-0.7-1.1-0.7-1.9v-0.2c0-0.8,0.2-1.4,0.7-1.9c0.5-0.5,1-0.8,1.6-0.8
		c0.7,0,1.3,0.2,1.6,0.7c0.4,0.4,0.6,1,0.6,1.7v0.6h-3.5l0,0c0,0.5,0.1,0.9,0.4,1.3c0.3,0.3,0.6,0.5,1.1,0.5c0.3,0,0.6,0,0.9-0.1
		c0.2-0.1,0.5-0.2,0.6-0.4l0.4,0.6c-0.2,0.2-0.4,0.3-0.8,0.5C646,292.6,645.6,292.6,645.2,292.6z M645,287.8c-0.3,0-0.6,0.1-0.8,0.4
		s-0.4,0.6-0.4,1l0,0h2.5v-0.1c0-0.4-0.1-0.7-0.3-1C645.7,288,645.4,287.8,645,287.8z"/>
	<path d="M648.2,291.9l0.8-0.1v-3.8l-0.8-0.1v-0.6h1.8v4.6l0.8,0.1v0.6h-2.6V291.9z M650,285.8h-1v-1h1V285.8z"/>
	<path d="M653.4,287.8l-0.6,0.1l1.1,3l0.1,0.4h0l0.1-0.4l1.1-3l-0.6-0.1v-0.6h2.1v0.6l-0.4,0.1l-1.8,4.7h-0.7l-1.8-4.7l-0.4-0.1
		v-0.6h2.1V287.8z"/>
	<path d="M659.6,292.6c-0.7,0-1.3-0.2-1.8-0.7s-0.7-1.1-0.7-1.9v-0.2c0-0.8,0.2-1.4,0.7-1.9c0.5-0.5,1-0.8,1.6-0.8
		c0.7,0,1.3,0.2,1.6,0.7s0.6,1,0.6,1.7v0.6h-3.5l0,0c0,0.5,0.1,0.9,0.4,1.3c0.3,0.3,0.6,0.5,1.1,0.5c0.3,0,0.6,0,0.9-0.1
		c0.2-0.1,0.5-0.2,0.6-0.4l0.4,0.6c-0.2,0.2-0.4,0.3-0.8,0.5C660.4,292.6,660,292.6,659.6,292.6z M659.4,287.8
		c-0.3,0-0.6,0.1-0.8,0.4c-0.2,0.3-0.4,0.6-0.4,1l0,0h2.5v-0.1c0-0.4-0.1-0.7-0.3-1C660.1,288,659.8,287.8,659.4,287.8z"/>
	<path d="M662.6,287.8v-0.6h1.7l0.1,0.8c0.2-0.3,0.3-0.5,0.6-0.6s0.5-0.2,0.8-0.2c0.1,0,0.2,0,0.2,0c0.1,0,0.1,0,0.2,0l-0.1,0.9
		l-0.6,0c-0.3,0-0.5,0.1-0.6,0.2s-0.3,0.3-0.4,0.5v3.1l0.8,0.1v0.6h-2.6v-0.6l0.8-0.1v-3.8L662.6,287.8z"/>
</g>
<g>
	<path d="M307.9,242.4v-0.7h2.7v0.7l-0.8,0.1v5.9l0.8,0.1v0.7h-2.7v-0.7l0.8-0.1v-5.9L307.9,242.4z"/>
	<path d="M314.7,241.8c0.8,0,1.4,0.2,1.9,0.5s0.7,0.9,0.7,1.5c0,0.4-0.1,0.7-0.3,1c-0.2,0.3-0.5,0.5-0.9,0.7
		c0.4,0.1,0.7,0.4,0.9,0.7c0.2,0.3,0.3,0.7,0.3,1.1v0.6c0,0.2,0,0.4,0.1,0.5c0.1,0.1,0.2,0.2,0.3,0.2l0.2,0v0.7h-0.5
		c-0.4,0-0.7-0.1-0.8-0.4c-0.2-0.3-0.3-0.6-0.3-1v-0.6c0-0.4-0.1-0.7-0.4-1c-0.2-0.2-0.6-0.4-1-0.4h-1.6v2.6l0.8,0.1v0.7h-2.7v-0.7
		l0.8-0.1v-5.9l-0.8-0.1v-0.7h0.8H314.7z M313.2,245.1h1.3c0.6,0,1-0.1,1.2-0.3c0.3-0.2,0.4-0.5,0.4-0.9c0-0.4-0.1-0.7-0.4-0.9
		c-0.2-0.2-0.6-0.3-1.2-0.3h-1.4V245.1z"/>
</g>
<g>
	<path d="M642,242.4v-0.7h2.7v0.7l-0.8,0.1v5.9l0.8,0.1v0.7H642v-0.7l0.8-0.1v-5.9L642,242.4z"/>
	<path d="M648.7,241.8c0.8,0,1.4,0.2,1.9,0.5c0.4,0.4,0.7,0.9,0.7,1.5c0,0.4-0.1,0.7-0.3,1c-0.2,0.3-0.5,0.5-0.9,0.7
		c0.4,0.1,0.7,0.4,0.9,0.7c0.2,0.3,0.3,0.7,0.3,1.1v0.6c0,0.2,0,0.4,0.1,0.5c0.1,0.1,0.2,0.2,0.3,0.2l0.2,0v0.7h-0.5
		c-0.4,0-0.7-0.1-0.8-0.4s-0.3-0.6-0.3-1v-0.6c0-0.4-0.1-0.7-0.4-1s-0.6-0.4-1-0.4h-1.6v2.6l0.8,0.1v0.7h-2.7v-0.7l0.8-0.1v-5.9
		l-0.8-0.1v-0.7h0.8H648.7z M647.3,245.1h1.3c0.6,0,1-0.1,1.2-0.3s0.4-0.5,0.4-0.9c0-0.4-0.1-0.7-0.4-0.9c-0.2-0.2-0.6-0.3-1.2-0.3
		h-1.4V245.1z"/>
</g>
<g>
	<path d="M297.3,292.6c-0.8,0-1.4-0.3-1.9-0.8c-0.5-0.5-0.7-1.2-0.7-2v-0.2c0-0.8,0.2-1.5,0.7-2c0.5-0.5,1-0.8,1.7-0.8
		c0.8,0,1.3,0.2,1.7,0.7c0.4,0.5,0.6,1.1,0.6,1.8v0.6h-3.6l0,0c0,0.5,0.1,1,0.4,1.3s0.6,0.5,1.1,0.5c0.3,0,0.6,0,0.9-0.1
		c0.3-0.1,0.5-0.2,0.7-0.4l0.4,0.7c-0.2,0.2-0.5,0.4-0.8,0.5C298.2,292.6,297.8,292.6,297.3,292.6z M297.1,287.6
		c-0.3,0-0.6,0.1-0.9,0.4c-0.2,0.3-0.4,0.6-0.4,1.1l0,0h2.6V289c0-0.4-0.1-0.7-0.3-1C297.9,287.8,297.6,287.6,297.1,287.6z"/>
	<path d="M300.2,291.9l0.8-0.1v-4l-0.8-0.1v-0.7h1.8l0.1,0.7c0.2-0.3,0.4-0.5,0.7-0.6c0.3-0.1,0.6-0.2,1-0.2c0.4,0,0.7,0.1,1,0.3
		c0.3,0.2,0.5,0.4,0.6,0.8c0.2-0.3,0.4-0.6,0.7-0.8c0.3-0.2,0.6-0.3,1-0.3c0.6,0,1,0.2,1.4,0.6s0.5,1,0.5,1.8v2.5l0.8,0.1v0.7H307
		v-0.7l0.8-0.1v-2.6c0-0.6-0.1-0.9-0.3-1.2c-0.2-0.2-0.5-0.3-0.8-0.3c-0.4,0-0.6,0.1-0.9,0.4s-0.3,0.6-0.4,0.9v2.8l0.8,0.1v0.7h-2.7
		v-0.7l0.8-0.1v-2.6c0-0.5-0.1-0.9-0.3-1.1c-0.2-0.2-0.5-0.4-0.8-0.4c-0.3,0-0.6,0.1-0.8,0.2c-0.2,0.1-0.4,0.3-0.5,0.5v3.3l0.8,0.1
		v0.7h-2.7V291.9z"/>
	<path d="M310.4,291.9l0.8-0.1v-4l-0.8-0.1v-0.7h1.9v4.8l0.8,0.1v0.7h-2.7V291.9z M312.3,285.5h-1v-1h1V285.5z"/>
	<path d="M315.7,285.6v1.3h1.1v0.8h-1.1v3.4c0,0.3,0.1,0.4,0.2,0.6c0.1,0.1,0.3,0.2,0.4,0.2c0.1,0,0.2,0,0.3,0c0.1,0,0.2,0,0.3,0
		l0.1,0.7c-0.1,0.1-0.2,0.1-0.4,0.2c-0.2,0-0.4,0.1-0.6,0.1c-0.4,0-0.7-0.1-1-0.4c-0.2-0.2-0.4-0.6-0.4-1.2v-3.4h-0.9v-0.8h0.9v-1.3
		H315.7z"/>
	<path d="M319.5,285.6v1.3h1.1v0.8h-1.1v3.4c0,0.3,0.1,0.4,0.2,0.6c0.1,0.1,0.3,0.2,0.4,0.2c0.1,0,0.2,0,0.3,0c0.1,0,0.2,0,0.3,0
		l0.1,0.7c-0.1,0.1-0.2,0.1-0.4,0.2c-0.2,0-0.4,0.1-0.6,0.1c-0.4,0-0.7-0.1-1-0.4c-0.2-0.2-0.4-0.6-0.4-1.2v-3.4h-0.9v-0.8h0.9v-1.3
		H319.5z"/>
	<path d="M324.2,292.6c-0.8,0-1.4-0.3-1.9-0.8c-0.5-0.5-0.7-1.2-0.7-2v-0.2c0-0.8,0.2-1.5,0.7-2c0.5-0.5,1-0.8,1.7-0.8
		c0.8,0,1.3,0.2,1.7,0.7c0.4,0.5,0.6,1.1,0.6,1.8v0.6h-3.6l0,0c0,0.5,0.1,1,0.4,1.3s0.6,0.5,1.1,0.5c0.3,0,0.6,0,0.9-0.1
		c0.3-0.1,0.5-0.2,0.7-0.4l0.4,0.7c-0.2,0.2-0.5,0.4-0.8,0.5C325,292.6,324.6,292.6,324.2,292.6z M324,287.6c-0.3,0-0.6,0.1-0.9,0.4
		c-0.2,0.3-0.4,0.6-0.4,1.1l0,0h2.6V289c0-0.4-0.1-0.7-0.3-1C324.8,287.8,324.4,287.6,324,287.6z"/>
	<path d="M327.3,287.6v-0.7h1.7l0.1,0.8c0.2-0.3,0.4-0.5,0.6-0.7c0.2-0.2,0.5-0.2,0.8-0.2c0.1,0,0.2,0,0.2,0c0.1,0,0.1,0,0.2,0
		l-0.1,0.9l-0.6,0c-0.3,0-0.5,0.1-0.7,0.2c-0.2,0.1-0.3,0.3-0.4,0.5v3.2l0.8,0.1v0.7h-2.7v-0.7l0.8-0.1v-4L327.3,287.6z"/>
</g>
<g>
	<path d="M485.2,279.2l0.4-0.1v-2l-0.4-0.1v-0.3h0.9l0,0.4c0.1-0.1,0.2-0.2,0.3-0.3s0.3-0.1,0.5-0.1s0.3,0,0.5,0.1
		c0.1,0.1,0.2,0.2,0.3,0.4c0.1-0.2,0.2-0.3,0.4-0.4c0.1-0.1,0.3-0.1,0.5-0.1c0.3,0,0.5,0.1,0.7,0.3c0.2,0.2,0.3,0.5,0.3,0.9v1.3
		l0.4,0.1v0.3h-1.4v-0.3l0.4-0.1v-1.3c0-0.3,0-0.5-0.1-0.6c-0.1-0.1-0.2-0.2-0.4-0.2c-0.2,0-0.3,0.1-0.4,0.2
		c-0.1,0.1-0.2,0.3-0.2,0.5v1.4l0.4,0.1v0.3h-1.4v-0.3l0.4-0.1v-1.3c0-0.3,0-0.5-0.1-0.6c-0.1-0.1-0.2-0.2-0.4-0.2
		c-0.2,0-0.3,0-0.4,0.1c-0.1,0.1-0.2,0.2-0.2,0.3v1.7l0.4,0.1v0.3h-1.4V279.2z"/>
	<path d="M490.3,279.2l0.4-0.1v-2l-0.4-0.1v-0.3h0.9v2.4l0.4,0.1v0.3h-1.4V279.2z M491.3,276h-0.5v-0.5h0.5V276z"/>
	<path d="M493.3,279.2c0.2,0,0.3-0.1,0.5-0.2c0.1-0.1,0.2-0.2,0.2-0.4h0.5l0,0c0,0.2-0.1,0.5-0.3,0.6s-0.5,0.3-0.8,0.3
		c-0.4,0-0.7-0.1-0.9-0.4c-0.2-0.3-0.3-0.6-0.3-1V278c0-0.4,0.1-0.7,0.3-1s0.5-0.4,0.9-0.4c0.2,0,0.4,0,0.6,0.1
		c0.2,0.1,0.3,0.2,0.4,0.3l0,0.6H494l-0.1-0.4c-0.1-0.1-0.1-0.1-0.2-0.1s-0.2-0.1-0.3-0.1c-0.3,0-0.5,0.1-0.6,0.3s-0.2,0.4-0.2,0.7
		v0.1c0,0.3,0.1,0.5,0.2,0.7C492.9,279.1,493.1,279.2,493.3,279.2z"/>
	<path d="M495,277v-0.3h0.9l0,0.4c0.1-0.1,0.2-0.3,0.3-0.3c0.1-0.1,0.3-0.1,0.4-0.1c0,0,0.1,0,0.1,0c0,0,0.1,0,0.1,0l-0.1,0.5
		l-0.3,0c-0.1,0-0.2,0-0.3,0.1c-0.1,0.1-0.2,0.2-0.2,0.3v1.6l0.4,0.1v0.3H495v-0.3l0.4-0.1v-2L495,277z"/>
	<path d="M497.1,278.1c0-0.4,0.1-0.8,0.3-1c0.2-0.3,0.5-0.4,0.9-0.4c0.4,0,0.7,0.1,0.9,0.4c0.2,0.3,0.3,0.6,0.3,1v0.1
		c0,0.4-0.1,0.8-0.3,1c-0.2,0.3-0.5,0.4-0.9,0.4c-0.4,0-0.7-0.1-0.9-0.4C497.2,278.9,497.1,278.6,497.1,278.1L497.1,278.1z
		 M497.6,278.1c0,0.3,0.1,0.5,0.2,0.7c0.1,0.2,0.3,0.3,0.6,0.3c0.2,0,0.4-0.1,0.6-0.3c0.1-0.2,0.2-0.4,0.2-0.7v-0.1
		c0-0.3-0.1-0.5-0.2-0.7c-0.1-0.2-0.3-0.3-0.6-0.3c-0.2,0-0.4,0.1-0.6,0.3C497.7,277.5,497.6,277.8,497.6,278.1L497.6,278.1z"/>
	<path d="M501.4,275.7v0.3l-0.4,0.1v2.2c0,0.3,0.1,0.5,0.2,0.7c0.2,0.1,0.4,0.2,0.6,0.2c0.3,0,0.5-0.1,0.7-0.2
		c0.2-0.1,0.3-0.4,0.3-0.7v-2.2l-0.4-0.1v-0.3h0.9h0.4v0.3l-0.4,0.1v2.2c0,0.4-0.1,0.7-0.4,0.9s-0.6,0.3-1.1,0.3
		c-0.4,0-0.8-0.1-1-0.3c-0.3-0.2-0.4-0.5-0.4-0.9v-2.2L500,276v-0.3h0.4H501.4z"/>
	<path d="M506.8,276.8h-0.4l-0.1-0.5c-0.1-0.1-0.2-0.1-0.3-0.2s-0.3-0.1-0.5-0.1c-0.3,0-0.5,0.1-0.6,0.2c-0.1,0.1-0.2,0.3-0.2,0.5
		c0,0.2,0.1,0.3,0.2,0.4c0.1,0.1,0.4,0.2,0.7,0.3c0.4,0.1,0.7,0.2,0.9,0.4c0.2,0.2,0.3,0.4,0.3,0.7c0,0.3-0.1,0.6-0.4,0.7
		s-0.6,0.3-1,0.3c-0.3,0-0.6,0-0.8-0.1s-0.4-0.2-0.6-0.4v-0.7h0.4l0.1,0.5c0.1,0.1,0.2,0.1,0.4,0.2c0.1,0.1,0.3,0.1,0.5,0.1
		c0.3,0,0.5-0.1,0.6-0.2c0.2-0.1,0.2-0.3,0.2-0.4c0-0.2-0.1-0.3-0.2-0.4c-0.1-0.1-0.4-0.2-0.7-0.3c-0.4-0.1-0.7-0.2-0.9-0.4
		c-0.2-0.2-0.3-0.4-0.3-0.7c0-0.3,0.1-0.5,0.4-0.7c0.3-0.2,0.6-0.3,1-0.3c0.3,0,0.5,0,0.7,0.1c0.2,0.1,0.4,0.2,0.5,0.3V276.8z"/>
	<path d="M509,275.7c0.4,0,0.7,0.1,0.9,0.3s0.3,0.4,0.3,0.8c0,0.2-0.1,0.3-0.2,0.5s-0.2,0.2-0.4,0.3c0.2,0,0.4,0.2,0.5,0.3
		c0.1,0.2,0.2,0.4,0.2,0.6c0,0.3-0.1,0.6-0.3,0.8s-0.5,0.3-0.9,0.3h-1.8v-0.3l0.4-0.1v-3l-0.4-0.1v-0.3h0.4H509z M508.3,277.3h0.9
		c0.2,0,0.3-0.1,0.4-0.2c0.1-0.1,0.2-0.2,0.2-0.4c0-0.2-0.1-0.4-0.2-0.5c-0.1-0.1-0.3-0.2-0.6-0.2h-0.7V277.3z M508.3,277.7v1.4h0.9
		c0.2,0,0.4-0.1,0.5-0.2s0.2-0.3,0.2-0.5c0-0.2-0.1-0.4-0.2-0.5c-0.1-0.1-0.3-0.2-0.5-0.2H508.3z"/>
</g>
<g>
	<path d="M433.6,237.3v-0.4h0.5v-0.4c0-0.3,0.1-0.6,0.3-0.8s0.4-0.3,0.7-0.3c0.1,0,0.1,0,0.2,0s0.1,0,0.2,0l-0.1,0.4
		c0,0-0.1,0-0.1,0s-0.1,0-0.2,0c-0.2,0-0.3,0.1-0.4,0.2s-0.1,0.2-0.1,0.4v0.4h0.7v0.4h-0.7v2.3l0.5,0.1v0.4h-1.5v-0.4l0.5-0.1v-2.3
		H433.6z"/>
	<path d="M437.2,240.1c-0.4,0-0.8-0.1-1.1-0.4s-0.4-0.7-0.4-1.1v-0.1c0-0.5,0.1-0.8,0.4-1.1s0.6-0.4,1-0.4c0.4,0,0.7,0.1,1,0.4
		s0.3,0.6,0.3,1v0.4h-2.1l0,0c0,0.3,0.1,0.6,0.2,0.8s0.4,0.3,0.6,0.3c0.2,0,0.4,0,0.5-0.1s0.3-0.1,0.4-0.2l0.2,0.4
		c-0.1,0.1-0.3,0.2-0.4,0.3S437.4,240.1,437.2,240.1z M437.1,237.3c-0.2,0-0.4,0.1-0.5,0.2s-0.2,0.4-0.3,0.6l0,0h1.5v-0.1
		c0-0.2-0.1-0.4-0.2-0.6S437.3,237.3,437.1,237.3z"/>
	<path d="M440.4,240.1c-0.4,0-0.8-0.1-1.1-0.4s-0.4-0.7-0.4-1.1v-0.1c0-0.5,0.1-0.8,0.4-1.1s0.6-0.4,1-0.4c0.4,0,0.7,0.1,1,0.4
		s0.3,0.6,0.3,1v0.4h-2.1l0,0c0,0.3,0.1,0.6,0.2,0.8s0.4,0.3,0.6,0.3c0.2,0,0.4,0,0.5-0.1s0.3-0.1,0.4-0.2l0.2,0.4
		c-0.1,0.1-0.3,0.2-0.4,0.3S440.6,240.1,440.4,240.1z M440.3,237.3c-0.2,0-0.4,0.1-0.5,0.2s-0.2,0.4-0.3,0.6l0,0h1.5v-0.1
		c0-0.2-0.1-0.4-0.2-0.6S440.5,237.3,440.3,237.3z"/>
	<path d="M444.3,239.7c-0.1,0.1-0.2,0.3-0.4,0.3s-0.3,0.1-0.5,0.1c-0.4,0-0.7-0.1-0.9-0.4s-0.3-0.6-0.3-1.1v-0.1
		c0-0.5,0.1-0.9,0.3-1.2s0.5-0.5,0.9-0.5c0.2,0,0.4,0,0.5,0.1s0.3,0.2,0.4,0.3V236l-0.5-0.1v-0.4h0.5h0.6v4.1l0.5,0.1v0.4h-1
		L444.3,239.7z M442.7,238.6c0,0.3,0.1,0.6,0.2,0.8s0.3,0.3,0.6,0.3c0.2,0,0.3,0,0.4-0.1s0.2-0.2,0.3-0.3v-1.5
		c-0.1-0.1-0.2-0.2-0.3-0.3s-0.3-0.1-0.4-0.1c-0.3,0-0.5,0.1-0.6,0.3S442.7,238.2,442.7,238.6L442.7,238.6z"/>
	<path d="M448.7,238.6c0,0.5-0.1,0.8-0.3,1.1s-0.5,0.4-0.9,0.4c-0.2,0-0.4,0-0.5-0.1s-0.3-0.2-0.4-0.4l-0.1,0.4h-0.5V236l-0.5-0.1
		v-0.4h1.1v1.8c0.1-0.1,0.2-0.2,0.4-0.3s0.3-0.1,0.5-0.1c0.4,0,0.7,0.2,0.9,0.5S448.7,238,448.7,238.6L448.7,238.6z M448.1,238.5
		c0-0.4-0.1-0.7-0.2-0.9s-0.3-0.3-0.6-0.3c-0.2,0-0.3,0-0.4,0.1s-0.2,0.2-0.3,0.3v1.4c0.1,0.1,0.2,0.3,0.3,0.3s0.3,0.1,0.5,0.1
		c0.3,0,0.5-0.1,0.6-0.3S448.1,238.9,448.1,238.5L448.1,238.5z"/>
	<path d="M451.3,240.1c0-0.1,0-0.2,0-0.2s0-0.1,0-0.2c-0.1,0.1-0.3,0.3-0.4,0.4s-0.3,0.1-0.5,0.1c-0.3,0-0.6-0.1-0.8-0.2
		s-0.3-0.4-0.3-0.7c0-0.3,0.1-0.5,0.4-0.7s0.6-0.2,1-0.2h0.6v-0.4c0-0.2-0.1-0.3-0.2-0.4s-0.3-0.2-0.5-0.2c-0.1,0-0.3,0-0.4,0.1
		s-0.2,0.1-0.3,0.2l-0.1,0.3h-0.4v-0.6c0.1-0.1,0.3-0.2,0.5-0.3s0.4-0.1,0.7-0.1c0.4,0,0.7,0.1,0.9,0.3s0.3,0.4,0.3,0.8v1.5
		c0,0,0,0.1,0,0.1s0,0.1,0,0.1l0.2,0v0.4H451.3z M450.4,239.7c0.2,0,0.4,0,0.5-0.1s0.3-0.2,0.3-0.3v-0.5h-0.6
		c-0.2,0-0.4,0.1-0.6,0.2s-0.2,0.2-0.2,0.4c0,0.1,0,0.2,0.1,0.3S450.2,239.7,450.4,239.7z"/>
	<path d="M454,239.7c0.2,0,0.4-0.1,0.5-0.2s0.2-0.3,0.2-0.4h0.5l0,0c0,0.3-0.1,0.5-0.4,0.7s-0.5,0.3-0.9,0.3c-0.5,0-0.8-0.2-1.1-0.5
		s-0.4-0.7-0.4-1.1v-0.1c0-0.5,0.1-0.8,0.4-1.1s0.6-0.5,1.1-0.5c0.3,0,0.5,0,0.7,0.1s0.4,0.2,0.5,0.3l0,0.7h-0.5l-0.1-0.5
		c-0.1-0.1-0.2-0.1-0.3-0.2s-0.2-0.1-0.4-0.1c-0.3,0-0.5,0.1-0.6,0.3s-0.2,0.5-0.2,0.8v0.1c0,0.3,0.1,0.6,0.2,0.8
		S453.7,239.7,454,239.7z"/>
	<path d="M455.7,235.9v-0.4h1.1v2.6h0.4l0.7-0.8l-0.3,0v-0.4h1.3v0.4l-0.4,0.1l-0.8,1l1,1.3l0.4,0.1v0.4h-1.3v-0.4l0.3,0l-0.8-1.1
		h-0.4v1l0.5,0.1v0.4h-1.5v-0.4l0.5-0.1V236L455.7,235.9z"/>
</g>
<g>
	<g>
		<path d="M452.3,170.4h3.4v1.7h1.7v5.1h-5v3.3h3.3v-1.7h1.7v1.7h-1.7v1.7h-3.4v-1.7h-1.7V172h1.7V170.4z M452.4,175.4h3.3v-3.3
			h-3.3V175.4z"/>
		<polygon points="463.9,170.4 465.7,170.4 465.7,172.1 464,172.1 464,173.8 462.3,173.8 462.3,182.1 460.6,182.1 460.6,170.4 
			462.3,170.4 462.3,172 463.9,172 		"/>
		<path d="M468.9,172.1v-1.7h3.4v1.7h1.7v10.1h-5.1v-1.7h-1.7v-3.5h1.7v-1.7h3.3v-3.1H468.9z M472.3,177H469v3.4h3.3V177z"/>
		<polygon points="479,172.1 479,175.4 482.3,175.4 482.3,177 484,177 484,180.4 482.3,180.4 482.3,182.1 478.9,182.1 478.9,180.4 
			477.3,180.4 477.3,178.7 479,178.7 479,180.3 482.3,180.3 482.3,177.1 478.9,177.1 478.9,175.4 477.3,175.4 477.3,172 478.9,172 
			478.9,170.4 482.3,170.4 482.3,172 484,172 484,173.8 482.3,173.8 482.3,172.1 		"/>
		<polygon points="493.9,170.4 497.3,170.4 497.3,172 499,172 499,182.1 497.2,182.1 497.2,172.1 494,172.1 494,182.1 492.2,182.1 
			492.2,172.1 489,172.1 489,182.1 487.2,182.1 487.2,170.4 492.3,170.4 492.3,172 493.9,172 		"/>
		<path d="M503.9,170.4h3.4v1.7h1.7v5.1h-5v3.3h3.3v-1.7h1.7v1.7h-1.7v1.7h-3.4v-1.7h-1.7V172h1.7V170.4z M504,175.4h3.3v-3.3H504
			V175.4z"/>
		<rect x="467.3" y="172.1" width="1.7" height="1.7"/>
	</g>
</g>
<g>
	<g>
		<g>
			<polygon points="413.8,154.3 413.8,142.6 409.1,142.6 409.1,154.3 411.4,154.3 411.4,156.6 411.4,156.6 411.4,156.6 416.1,156.6 
				416.1,154.3 			"/>
			<rect x="418.5" y="142.6" width="4.7" height="14"/>
		</g>
		<polygon points="452.2,142.6 452.2,144.9 454.5,144.9 454.5,154.3 449.8,154.3 449.8,137.9 445.1,137.9 445.1,156.6 456.9,156.6 
			456.9,154.3 459.3,154.3 459.3,142.6 		"/>
		<polygon points="505.9,154.3 505.9,137.9 501.2,137.9 501.2,156.6 505.9,156.6 513,156.6 513,154.3 		"/>
		<polygon points="465.9,142.5 465.9,142.5 465.9,144.9 463.5,144.9 463.5,156.6 468.2,156.6 468.2,156.6 470.6,156.6 470.6,154.2 
			468.2,154.2 468.2,144.9 472.9,144.9 472.9,156.6 477.7,156.6 477.7,142.5 		"/>
		<polygon points="518.6,137.9 518.6,140.2 516.2,140.2 516.2,156.6 520.9,156.6 520.9,149.6 523.3,149.6 523.3,147.3 520.9,147.3 
			520.9,140.2 520.9,140.2 520.9,140.2 525.6,140.2 525.6,156.6 530.4,156.6 530.4,137.9 		"/>
		<path d="M549.2,147.3v-7.1h-2.4v-2.3l0,0H535v18.7h11.8v-2.4h2.4v-4.7h-2.4v-2.3H549.2z M539.8,154.3v-14h4.7v7h-2.3v2.4h2.3v4.7
			H539.8z"/>
		<polygon points="494.1,144.9 494.1,144.9 494.2,144.9 494.2,142.5 494.1,142.5 494.1,142.5 482.3,142.5 482.3,156.6 487.1,156.6 
			487.1,144.9 491.8,144.9 491.8,144.9 491.8,156.6 496.5,156.6 496.5,144.9 		"/>
		<g>
			<polygon points="432.9,144.9 432.9,142.5 428.1,142.5 428.1,156.6 432.9,156.6 432.9,147.3 435.2,147.3 435.2,144.9 			"/>
			<polygon points="435.2,142.5 435.2,144.9 437.6,144.9 437.6,147.3 442.3,147.3 442.3,142.5 			"/>
		</g>
	</g>
</g>
<g>
	<g>
		<g>
			<path d="M420.5,98l-0.8,0.1l1.9,5.5l0.2,0.7h0l0.2-0.7l1.9-5.5l-0.8-0.1v-0.7h2.7V98l-0.7,0.1l-2.9,7.7h-1l-2.9-7.7l-0.7-0.1
				v-0.7h2.7V98z"/>
			<path d="M430.5,97.3c0.9,0,1.6,0.2,2.1,0.7s0.8,1.1,0.8,1.9c0,0.8-0.3,1.4-0.8,1.9s-1.2,0.7-2.1,0.7h-1.8v2.5l1,0.2v0.7h-3.1
				v-0.7l1-0.2v-6.7l-1-0.2v-0.7h1H430.5z M428.7,101.5h1.8c0.6,0,1-0.2,1.3-0.5s0.4-0.7,0.4-1.2s-0.1-0.9-0.4-1.2s-0.7-0.5-1.3-0.5
				h-1.8V101.5z"/>
			<path d="M434.1,105.1l1-0.2v-4.5l-1-0.2v-0.7h2l0.1,0.8c0.2-0.3,0.5-0.5,0.8-0.7s0.7-0.2,1.1-0.2s0.8,0.1,1.1,0.3
				s0.5,0.5,0.7,0.9c0.2-0.4,0.5-0.6,0.8-0.9s0.7-0.3,1.1-0.3c0.6,0,1.2,0.2,1.5,0.7s0.6,1.1,0.6,2v2.9l1,0.2v0.7h-3.1v-0.7l1-0.2
				V102c0-0.6-0.1-1.1-0.3-1.3s-0.5-0.4-1-0.4c-0.4,0-0.7,0.1-1,0.4s-0.4,0.6-0.4,1.1v3.1l1,0.2v0.7h-3.1v-0.7l1-0.2V102
				c0-0.6-0.1-1-0.3-1.3s-0.5-0.4-1-0.4c-0.4,0-0.6,0.1-0.9,0.2s-0.4,0.3-0.5,0.6v3.8l1,0.2v0.7h-3.1V105.1z"/>
			<path d="M445.6,102.6c0-0.9,0.3-1.7,0.8-2.3s1.2-0.9,2.1-0.9c0.9,0,1.6,0.3,2.1,0.9s0.8,1.4,0.8,2.3v0.1c0,0.9-0.3,1.7-0.8,2.3
				s-1.2,0.9-2.1,0.9c-0.9,0-1.6-0.3-2.1-0.9s-0.8-1.4-0.8-2.3V102.6z M446.7,102.7c0,0.7,0.1,1.2,0.4,1.7s0.7,0.7,1.3,0.7
				c0.5,0,1-0.2,1.2-0.7s0.4-1,0.4-1.7v-0.1c0-0.7-0.1-1.2-0.4-1.7s-0.7-0.7-1.3-0.7s-1,0.2-1.3,0.7s-0.4,1-0.4,1.7V102.7z"/>
			<path d="M452.1,105.1l1-0.2v-4.5l-1-0.2v-0.7h2l0.1,0.9c0.2-0.3,0.5-0.6,0.8-0.8s0.7-0.3,1.1-0.3c0.7,0,1.2,0.2,1.6,0.6
				s0.6,1,0.6,1.9v3.1l1,0.2v0.7h-3.1v-0.7l1-0.2v-3.1c0-0.6-0.1-1-0.3-1.2s-0.6-0.4-1-0.4c-0.3,0-0.6,0.1-0.9,0.2s-0.5,0.4-0.6,0.7
				v3.7l1,0.2v0.7h-3.1V105.1z"/>
			<path d="M460,105.1l1-0.2v-4.5l-1-0.2v-0.7h2.1v5.4l1,0.2v0.7H460V105.1z M462.1,97.9H461v-1.2h1.2V97.9z"/>
			<path d="M466,98v1.5h1.2v0.9H466v3.8c0,0.3,0.1,0.5,0.2,0.6s0.3,0.2,0.5,0.2c0.1,0,0.2,0,0.3,0s0.2,0,0.3-0.1l0.2,0.8
				c-0.1,0.1-0.3,0.1-0.5,0.2s-0.4,0.1-0.6,0.1c-0.5,0-0.8-0.1-1.1-0.4s-0.4-0.7-0.4-1.3v-3.8h-1v-0.9h1V98H466z"/>
			<path d="M468.3,102.6c0-0.9,0.3-1.7,0.8-2.3s1.2-0.9,2.1-0.9c0.9,0,1.6,0.3,2.1,0.9s0.8,1.4,0.8,2.3v0.1c0,0.9-0.3,1.7-0.8,2.3
				s-1.2,0.9-2.1,0.9c-0.9,0-1.6-0.3-2.1-0.9s-0.8-1.4-0.8-2.3V102.6z M469.4,102.7c0,0.7,0.1,1.2,0.4,1.7s0.7,0.7,1.3,0.7
				c0.5,0,1-0.2,1.2-0.7s0.4-1,0.4-1.7v-0.1c0-0.7-0.1-1.2-0.4-1.7s-0.7-0.7-1.3-0.7s-1,0.2-1.3,0.7s-0.4,1-0.4,1.7V102.7z"/>
			<path d="M475,100.2v-0.7h2l0.1,0.9c0.2-0.3,0.4-0.6,0.7-0.8s0.6-0.3,0.9-0.3c0.1,0,0.2,0,0.3,0s0.2,0,0.2,0l-0.2,1.1l-0.7,0
				c-0.3,0-0.6,0.1-0.8,0.2s-0.4,0.3-0.5,0.6v3.6l1,0.2v0.7H475v-0.7l1-0.2v-4.5L475,100.2z"/>
			<path d="M479.9,105.1l1-0.2v-4.5l-1-0.2v-0.7h2.1v5.4l1,0.2v0.7h-3.1V105.1z M482.1,97.9h-1.2v-1.2h1.2V97.9z"/>
			<path d="M483.7,105.1l1-0.2v-4.5l-1-0.2v-0.7h2l0.1,0.9c0.2-0.3,0.5-0.6,0.8-0.8s0.7-0.3,1.1-0.3c0.7,0,1.2,0.2,1.6,0.6
				s0.6,1,0.6,1.9v3.1l1,0.2v0.7h-3.1v-0.7l1-0.2v-3.1c0-0.6-0.1-1-0.3-1.2s-0.6-0.4-1-0.4c-0.3,0-0.6,0.1-0.9,0.2s-0.5,0.4-0.6,0.7
				v3.7l1,0.2v0.7h-3.1V105.1z"/>
			<path d="M491.6,102.8c0-1,0.2-1.8,0.7-2.5s1.1-0.9,1.8-0.9c0.4,0,0.7,0.1,1,0.2s0.6,0.4,0.8,0.7l0.1-0.8h1v6.3
				c0,0.8-0.2,1.5-0.7,1.9s-1.1,0.7-2,0.7c-0.3,0-0.6,0-1-0.1s-0.7-0.2-0.9-0.3l0.3-0.9c0.2,0.1,0.5,0.2,0.8,0.3s0.6,0.1,0.9,0.1
				c0.5,0,0.9-0.1,1.1-0.4s0.4-0.7,0.4-1.2v-0.6c-0.2,0.3-0.5,0.5-0.7,0.6s-0.6,0.2-1,0.2c-0.8,0-1.4-0.3-1.8-0.8s-0.7-1.3-0.7-2.2
				V102.8z M492.7,102.9c0,0.6,0.1,1.1,0.4,1.5s0.7,0.6,1.2,0.6c0.3,0,0.6-0.1,0.9-0.2s0.4-0.4,0.6-0.7v-2.9
				c-0.1-0.3-0.3-0.5-0.6-0.6s-0.5-0.2-0.9-0.2c-0.6,0-1,0.2-1.2,0.7s-0.4,1.1-0.4,1.8V102.9z"/>
			<path d="M506.2,101.5h-0.9l-0.2-0.8c-0.1-0.1-0.3-0.2-0.5-0.3s-0.5-0.1-0.7-0.1c-0.4,0-0.7,0.1-0.9,0.3s-0.3,0.4-0.3,0.7
				c0,0.2,0.1,0.4,0.3,0.6s0.5,0.3,1.1,0.4c0.8,0.2,1.4,0.4,1.8,0.7s0.6,0.7,0.6,1.2c0,0.6-0.2,1-0.7,1.4s-1,0.5-1.8,0.5
				c-0.5,0-0.9-0.1-1.3-0.2s-0.7-0.3-1-0.5l0-1.4h0.9l0.2,0.8c0.1,0.1,0.3,0.2,0.5,0.3s0.5,0.1,0.7,0.1c0.4,0,0.7-0.1,1-0.2
				s0.3-0.4,0.3-0.7c0-0.3-0.1-0.5-0.3-0.6s-0.6-0.3-1.1-0.4c-0.8-0.2-1.3-0.4-1.7-0.7s-0.6-0.7-0.6-1.2c0-0.5,0.2-1,0.7-1.3
				s1-0.5,1.7-0.5c0.5,0,0.9,0.1,1.3,0.2s0.7,0.3,1,0.5L506.2,101.5z"/>
			<path d="M513.5,100.2l-0.6,0.1l-2.4,6.5c-0.2,0.4-0.4,0.8-0.7,1.1s-0.7,0.5-1.2,0.5c-0.1,0-0.2,0-0.4,0s-0.3,0-0.3-0.1l0.1-0.9
				c0,0,0,0,0.2,0s0.3,0,0.3,0c0.2,0,0.4-0.1,0.6-0.3s0.3-0.5,0.4-0.7l0.3-0.7l-2.1-5.4l-0.6-0.1v-0.7h2.6v0.7l-0.7,0.1l1.1,3.1
				l0.2,0.8h0l1.3-3.9l-0.7-0.1v-0.7h2.6V100.2z"/>
			<path d="M519.1,101.5h-0.9l-0.2-0.8c-0.1-0.1-0.3-0.2-0.5-0.3s-0.5-0.1-0.7-0.1c-0.4,0-0.7,0.1-0.9,0.3s-0.3,0.4-0.3,0.7
				c0,0.2,0.1,0.4,0.3,0.6s0.5,0.3,1.1,0.4c0.8,0.2,1.4,0.4,1.8,0.7s0.6,0.7,0.6,1.2c0,0.6-0.2,1-0.7,1.4s-1,0.5-1.8,0.5
				c-0.5,0-0.9-0.1-1.3-0.2s-0.7-0.3-1-0.5l0-1.4h0.9l0.2,0.8c0.1,0.1,0.3,0.2,0.5,0.3s0.5,0.1,0.7,0.1c0.4,0,0.7-0.1,1-0.2
				s0.3-0.4,0.3-0.7c0-0.3-0.1-0.5-0.3-0.6s-0.6-0.3-1.1-0.4c-0.8-0.2-1.3-0.4-1.7-0.7s-0.6-0.7-0.6-1.2c0-0.5,0.2-1,0.7-1.3
				s1-0.5,1.7-0.5c0.5,0,0.9,0.1,1.3,0.2s0.7,0.3,1,0.5L519.1,101.5z"/>
			<path d="M522.4,98v1.5h1.2v0.9h-1.2v3.8c0,0.3,0.1,0.5,0.2,0.6s0.3,0.2,0.5,0.2c0.1,0,0.2,0,0.3,0s0.2,0,0.3-0.1l0.2,0.8
				c-0.1,0.1-0.3,0.1-0.5,0.2s-0.4,0.1-0.6,0.1c-0.5,0-0.8-0.1-1.1-0.4s-0.4-0.7-0.4-1.3v-3.8h-1v-0.9h1V98H522.4z"/>
			<path d="M527.7,106c-0.9,0-1.6-0.3-2.1-0.9s-0.8-1.4-0.8-2.3v-0.3c0-0.9,0.3-1.7,0.8-2.3s1.2-0.9,1.9-0.9c0.9,0,1.5,0.3,1.9,0.8
				s0.7,1.2,0.7,2.1v0.7H526l0,0c0,0.6,0.2,1.1,0.5,1.5s0.7,0.6,1.2,0.6c0.4,0,0.7-0.1,1-0.2s0.5-0.3,0.8-0.5l0.5,0.8
				c-0.2,0.2-0.5,0.4-0.9,0.6S528.2,106,527.7,106z M527.5,100.3c-0.4,0-0.7,0.2-1,0.5s-0.4,0.7-0.5,1.2l0,0h2.9v-0.2
				c0-0.5-0.1-0.8-0.4-1.1S528,100.3,527.5,100.3z"/>
			<path d="M531,105.1l1-0.2v-4.5l-1-0.2v-0.7h2l0.1,0.8c0.2-0.3,0.5-0.5,0.8-0.7s0.7-0.2,1.1-0.2s0.8,0.1,1.1,0.3s0.5,0.5,0.7,0.9
				c0.2-0.4,0.5-0.6,0.8-0.9s0.7-0.3,1.1-0.3c0.6,0,1.2,0.2,1.5,0.7s0.6,1.1,0.6,2v2.9l1,0.2v0.7h-3.1v-0.7l1-0.2V102
				c0-0.6-0.1-1.1-0.3-1.3s-0.5-0.4-1-0.4c-0.4,0-0.7,0.1-1,0.4s-0.4,0.6-0.4,1.1v3.1l1,0.2v0.7h-3.1v-0.7l1-0.2V102
				c0-0.6-0.1-1-0.3-1.3s-0.5-0.4-1-0.4c-0.4,0-0.6,0.1-0.9,0.2s-0.4,0.3-0.5,0.6v3.8l1,0.2v0.7H531V105.1z"/>
		</g>
	</g>
	<rect x="409" y="87.2" class="st1" width="140.2" height="28"/>
</g>
</svg>
